<svg xmlns="http://www.w3.org/2000/svg" width="77.51" height="16.878" viewBox="0 0 77.51 16.878"><defs><style>.a{fill:#0039d6;}</style></defs><g transform="translate(0 0)"><path class="a" d="M39.171,2.512A7.612,7.612,0,0,0,33.477.143H26.66V5.056h6.813a3.045,3.045,0,0,1,2.362,1.023,3.807,3.807,0,0,1,.925,2.651,3.8,3.8,0,0,1-.927,2.649,3.045,3.045,0,0,1-2.36,1.03H31.594V8.081H26.66v8.883h6.813A7.619,7.619,0,0,0,39.167,14.6a8.086,8.086,0,0,0,2.278-5.876A8.853,8.853,0,0,0,39.171,2.512Z" transform="translate(-20.588 -0.104)"/><path class="a" d="M116.391,30.761a8.023,8.023,0,0,1-9.685,0A5.406,5.406,0,0,1,104.85,26.5V20.09h4.7v5.9q0,1.838,2,1.836t1.988-1.836v-5.9h4.7V26.5A5.365,5.365,0,0,1,116.391,30.761Z" transform="translate(-80.968 -15.509)"/><path class="a" d="M279.995,14.417a8.758,8.758,0,0,1-12.111,0,8.088,8.088,0,0,1-2.471-6.006,8.091,8.091,0,0,1,2.471-6,8.758,8.758,0,0,1,12.111,0,8.091,8.091,0,0,1,2.471,6,8.088,8.088,0,0,1-2.471,6.006Zm-8.869-3.2a3.929,3.929,0,0,0,6.744-2.8,3.931,3.931,0,1,0-7.86,0,3.8,3.8,0,0,0,1.116,2.8Z" transform="translate(-204.958 0.022)"/><rect class="a" width="4.934" height="3.02" transform="translate(0 4.952)"/><path class="a" d="M194.041,11.68V25.875h-4.7V17.853l-3.665,6.17h-.421l-3.667-6.17v8.022h-4.7V11.68h4.7l3.872,4.43,3.872-4.43Z" transform="translate(-136.6 -9.015)"/></g></svg>