<svg xmlns="http://www.w3.org/2000/svg" width="16.5" height="16.5" viewBox="0 0 16.5 16.5"><defs><style>.a{fill:none;stroke:#646a86;stroke-linecap:round;stroke-linejoin:round;stroke-width:1.5px;}</style></defs><g transform="translate(0.75 0.75)"><path class="a" d="M3249.862,7438.366a7.265,7.265,0,0,0,3.542,0" transform="translate(-3244.133 -7423.585)"/><path class="a" d="M3253.4,7403.111a7.28,7.28,0,0,0-3.542,0" transform="translate(-3244.133 -7402.893)"/><path class="a" d="M3271.587,7416.641a7.267,7.267,0,0,1,0,3.543" transform="translate(-3256.806 -7410.912)"/><path class="a" d="M3258.364,7403.418a7.5,7.5,0,0,1,5.51,5.509" transform="translate(-3249.093 -7403.199)"/><path class="a" d="M3236.639,7408.927a7.5,7.5,0,0,1,5.51-5.509" transform="translate(-3236.42 -7403.199)"/><path class="a" d="M3263.874,7425.144a7.5,7.5,0,0,1-5.51,5.51" transform="translate(-3249.093 -7415.873)"/><path class="a" d="M3242.149,7430.653a7.5,7.5,0,0,1-5.51-5.51" transform="translate(-3236.42 -7415.873)"/><path class="a" d="M3236.332,7416.641a7.267,7.267,0,0,0,0,3.543" transform="translate(-3236.113 -7410.912)"/><path class="a" d="M3253.4,7413.076a3.433,3.433,0,0,0-3.542,0" transform="translate(-3244.133 -7408.545)"/><path class="a" d="M3259.563,7414.963a3.468,3.468,0,0,0-1.2-1.2" transform="translate(-3249.093 -7409.234)"/><path class="a" d="M3258.364,7426.342a3.468,3.468,0,0,0,1.2-1.2" transform="translate(-3249.093 -7415.873)"/><path class="a" d="M3246.3,7416.641a3.44,3.44,0,0,0,0,3.543" transform="translate(-3241.767 -7410.912)"/><path class="a" d="M3249.862,7428.019a3.436,3.436,0,0,0,3.542,0" transform="translate(-3244.133 -7417.55)"/><path class="a" d="M3261.241,7416.641a3.437,3.437,0,0,1,0,3.543" transform="translate(-3250.771 -7410.912)"/><path class="a" d="M3246.985,7425.144a3.475,3.475,0,0,0,1.2,1.2" transform="translate(-3242.455 -7415.873)"/><path class="a" d="M3246.985,7414.963a3.475,3.475,0,0,1,1.2-1.2" transform="translate(-3242.455 -7409.234)"/><line class="a" y1="4.311" transform="translate(9.271 10.47)"/><line class="a" y2="4.311" transform="translate(9.271 0.219)"/><line class="a" y2="4.311" transform="translate(5.729 10.47)"/><line class="a" y2="4.311" transform="translate(5.729 0.219)"/><line class="a" x1="4.311" transform="translate(10.47 5.729)"/><line class="a" x1="4.311" transform="translate(0.219 5.729)"/><line class="a" x1="4.311" transform="translate(0.219 9.271)"/><line class="a" x1="4.311" transform="translate(10.47 9.271)"/></g></svg>