<svg xmlns="http://www.w3.org/2000/svg" width="16.5" height="16.5" viewBox="0 0 16.5 16.5"><defs><style>.a{fill:none;stroke:#646a86;stroke-linecap:round;stroke-linejoin:round;stroke-width:1.5px;}</style></defs><g transform="translate(0.75 0.75)"><g transform="translate(4.619 4.618)"><circle class="a" cx="2.882" cy="2.882" r="2.882"/></g><path class="a" d="M3250.795,1767.686v-2.825h-2.271a5.374,5.374,0,0,0-.532-1.287l1.6-1.6-2-2-1.6,1.6a5.448,5.448,0,0,0-1.287-.536v-2.266h-2.825v2.266a5.457,5.457,0,0,0-1.287.536l-1.6-1.6-2,2,1.6,1.6a5.393,5.393,0,0,0-.532,1.287h-2.271v2.825h2.271a5.393,5.393,0,0,0,.532,1.287l-1.6,1.6,2,2,1.6-1.605a5.457,5.457,0,0,0,1.287.536v2.267h2.825v-2.267a5.448,5.448,0,0,0,1.287-.536l1.6,1.605,2-2-1.6-1.6a5.374,5.374,0,0,0,.532-1.287Z" transform="translate(-3235.795 -1758.774)"/></g></svg>