<svg xmlns="http://www.w3.org/2000/svg" width="6.692" height="10.416" viewBox="0 0 6.692 10.416"><defs><style>.a{fill:#fff;}</style></defs><path class="a" d="M6.132-8.078a2.21,2.21,0,0,0-.8-.665A2.445,2.445,0,0,0,4.2-9a2.64,2.64,0,0,0-.679.091,1.867,1.867,0,0,0-.623.294,1.623,1.623,0,0,0-.455.5,1.411,1.411,0,0,0-.175.721,1.318,1.318,0,0,0,.161.679,1.461,1.461,0,0,0,.434.462,2.767,2.767,0,0,0,.644.322q.371.133.791.273.5.154,1.022.35a3.66,3.66,0,0,1,.938.518,2.551,2.551,0,0,1,.686.805A2.52,2.52,0,0,1,7.21-2.758a2.926,2.926,0,0,1-.287,1.337,2.738,2.738,0,0,1-.763.938,3.25,3.25,0,0,1-1.1.553A4.545,4.545,0,0,1,3.78.252,4.676,4.676,0,0,1,1.967-.112,3.6,3.6,0,0,1,.518-1.19L1.6-2.1a2.638,2.638,0,0,0,.938.84,2.61,2.61,0,0,0,1.274.322,2.586,2.586,0,0,0,.7-.1,1.968,1.968,0,0,0,.637-.308,1.69,1.69,0,0,0,.469-.525A1.5,1.5,0,0,0,5.8-2.632a1.383,1.383,0,0,0-.189-.749A1.668,1.668,0,0,0,5.1-3.892a3.38,3.38,0,0,0-.749-.357q-.427-.147-.9-.3a7.8,7.8,0,0,1-.938-.343,3.252,3.252,0,0,1-.826-.518,2.394,2.394,0,0,1-.588-.777A2.622,2.622,0,0,1,.868-7.336a2.547,2.547,0,0,1,.3-1.274,2.742,2.742,0,0,1,.784-.882A3.264,3.264,0,0,1,3.045-10a4.774,4.774,0,0,1,1.225-.161,4.263,4.263,0,0,1,1.624.308,3.233,3.233,0,0,1,1.218.826Z" transform="translate(-0.518 10.164)"/></svg>